<svg width="81" height="81" viewBox="0 0 81 81" fill="none" xmlns="http://www.w3.org/2000/svg">
<rect x="2" y="2" width="77" height="77" rx="38.5" stroke="#F5F5F5" stroke-width="3"/>
<g clip-path="url(#clip0_1_168)">
<path d="M27.5 55.0765C27.5 54.8526 27.6818 54.6703 27.9062 54.6713H50.3973L44.9429 53.0463C44.8768 53.027 44.8184 52.992 44.7707 52.9432L30.8851 38.9642C30.8653 38.9444 30.8556 38.9195 30.8409 38.8976L27.8707 35.9269C27.6315 35.6883 27.5 35.3694 27.5 35.0317C27.5 34.6935 27.6315 34.3761 27.8707 34.1369L32.1241 29.8835C32.6177 29.3904 33.4206 29.3904 33.9137 29.8835L36.9519 32.9217C36.9712 32.942 36.9819 32.9664 36.9966 32.9887L50.9041 46.8972C50.9498 46.9419 50.9838 46.9983 51.0031 47.0592L53.5706 54.9526C53.5746 54.9638 53.5701 54.975 53.5721 54.9867C53.5797 55.0166 53.5909 55.0451 53.5909 55.0776C53.5909 55.0989 53.5823 55.1167 53.5787 55.137C53.5757 55.1563 53.5731 55.174 53.5675 55.1928C53.5488 55.2522 53.5218 55.3066 53.4807 55.3513C53.4771 55.3538 53.4771 55.3589 53.4746 55.3609C53.4741 55.3619 53.4731 55.3619 53.4726 55.3629C53.435 55.4 53.3903 55.43 53.3405 55.4513C53.2913 55.4726 53.2385 55.4828 53.1841 55.4828H27.9062C27.6818 55.4828 27.5 55.301 27.5 55.0765ZM32.669 37.7561L31.7468 38.6783L44.9459 51.9647L45.4146 50.3381L32.669 37.7561ZM46.0382 49.8126H47.9034V47.9164L35.2228 35.2023L33.2429 37.1822L46.0382 49.8126ZM48.4097 47.2735L49.8128 46.9551L36.6416 33.7835L35.7971 34.6279L48.4097 47.2735ZM46.1779 50.6251L45.6624 52.4126L52.559 54.4672L50.3465 47.6665L48.7159 48.0372V50.2188C48.7159 50.4433 48.5341 50.6251 48.3096 50.6251H46.1779ZM28.3125 35.0317C28.3125 35.1525 28.3597 35.2663 28.4455 35.3516L31.1857 38.0912L36.079 33.1979L33.3393 30.4578C33.1616 30.2811 32.8747 30.2816 32.6985 30.4578L28.445 34.7112C28.3597 34.7976 28.3125 34.9103 28.3125 35.0317Z" fill="#242424"/>
</g>
<defs>
<clipPath id="clip0_1_168">
<rect width="26" height="26" fill="white" transform="matrix(1 0 0 -1 27.5 55.5)"/>
</clipPath>
</defs>
</svg>
