<svg width="80" height="81" viewBox="0 0 80 81" fill="none" xmlns="http://www.w3.org/2000/svg">
<rect x="0.5" y="1" width="79" height="79" rx="39.5" stroke="#E4E4E4"/>
<g clip-path="url(#clip0_1_261)">
<path d="M55.0268 32.375C56.1468 32.375 57.0575 33.2865 57.0575 34.4062V49.0312C57.0575 50.151 56.1468 51.0625 55.0268 51.0625H49.341C49.1166 51.0625 48.9349 50.8807 48.9349 50.6562C48.9349 50.4318 49.1166 50.25 49.341 50.25H55.0268C55.6985 50.25 56.2452 49.7031 56.2452 49.0312V38.875H49.7446C50.268 40.1262 50.5594 41.4984 50.5594 42.9375C50.5594 48.7616 45.8224 53.5 40 53.5C34.1776 53.5 29.4406 48.7616 29.4406 42.9375C29.4406 41.4984 29.73 40.1262 30.2529 38.875H23.7548V49.0312C23.7548 49.7031 24.3015 50.25 24.9732 50.25H29.8467C30.0711 50.25 30.2529 50.4318 30.2529 50.6562C30.2529 50.8807 30.0711 51.0625 29.8467 51.0625H24.9732C23.8532 51.0625 22.9425 50.151 22.9425 49.0312V34.4062C22.9425 33.2865 23.8532 32.375 24.9732 32.375H31.0651C32.6759 32.375 32.714 30.812 32.715 30.7449V29.9375C32.715 28.9574 33.5801 27.5 35.9641 27.5H44.0613C46.1813 27.5 47.3104 28.9153 47.3104 29.9375V30.75C47.3119 30.915 47.3698 32.375 48.9349 32.375H55.0268ZM40 52.6875C45.3746 52.6875 49.7471 48.3137 49.7471 42.9375C49.7471 37.5613 45.3746 33.1875 40 33.1875C34.6254 33.1875 30.2529 37.5613 30.2529 42.9375C30.2529 48.3137 34.6254 52.6875 40 52.6875ZM49.5441 38.0625H56.2452V34.4062C56.2452 33.7344 55.6985 33.1875 55.0268 33.1875H48.9349C47.0073 33.1875 46.4981 31.5935 46.4981 30.75V29.9375C46.4981 29.388 45.762 28.3125 44.0613 28.3125H35.9641C34.1761 28.3125 33.5273 29.2845 33.5273 29.9375V30.75C33.5171 31.5965 32.9887 33.1875 31.0651 33.1875H24.9732C24.3015 33.1875 23.7548 33.7344 23.7548 34.4062V38.0625H30.4559C30.5158 38.0625 30.5722 38.0772 30.6235 38.1006C32.381 34.7054 35.9209 32.375 40 32.375C44.0791 32.375 47.619 34.7054 49.3765 38.1006C49.4278 38.0772 49.4842 38.0625 49.5441 38.0625ZM30.659 31.5625C30.4346 31.5625 30.2529 31.3807 30.2529 31.1562V30.3438C30.2529 30.1193 30.0701 29.9375 29.8467 29.9375H26.5977C26.3743 29.9375 26.1915 30.1193 26.1915 30.3438V31.1562C26.1915 31.3807 26.0098 31.5625 25.7854 31.5625C25.561 31.5625 25.3793 31.3807 25.3793 31.1562V30.3438C25.3793 29.6719 25.926 29.125 26.5977 29.125H29.8467C30.5184 29.125 31.0651 29.6719 31.0651 30.3438V31.1562C31.0651 31.3807 30.8834 31.5625 30.659 31.5625ZM40 35.625C44.0314 35.625 47.3104 38.906 47.3104 42.9375C47.3104 46.969 44.0314 50.25 40 50.25C35.9686 50.25 32.6896 46.969 32.6896 42.9375C32.6896 38.906 35.9686 35.625 40 35.625ZM40 49.4375C43.5831 49.4375 46.4981 46.5216 46.4981 42.9375C46.4981 39.3534 43.5831 36.4375 40 36.4375C36.4169 36.4375 33.5019 39.3534 33.5019 42.9375C33.5019 46.5216 36.4169 49.4375 40 49.4375Z" fill="#242424"/>
</g>
<defs>
<clipPath id="clip0_1_261">
<rect width="34.12" height="26" fill="white" transform="matrix(1 0 0 -1 22.94 53.5)"/>
</clipPath>
</defs>
</svg>
