<svg width="80" height="81" viewBox="0 0 80 81" fill="none" xmlns="http://www.w3.org/2000/svg">
<rect x="0.5" y="1" width="79" height="79" rx="39.5" stroke="#E4E4E4"/>
<g clip-path="url(#clip0_1_253)">
<path d="M54.2188 36.4375C58.9231 36.4375 62.75 40.2644 62.75 44.9688C62.75 49.6731 58.9231 53.5 54.2188 53.5C49.5144 53.5 45.6875 49.6731 45.6875 44.9688C45.6875 42.1184 47.0972 39.5971 49.2503 38.0478L46.2197 33.3972L40.4941 44.6422H43.6857C43.8893 44.6422 44.0615 44.793 44.0884 44.9957C44.096 45.0551 44.2707 46.4622 43.3424 47.5215C42.7005 48.2538 41.7129 48.625 40.4062 48.625C40.1818 48.625 40 48.4432 40 48.2188C40 47.9943 40.1818 47.8125 40.4062 47.8125C41.465 47.8125 42.2455 47.5363 42.727 46.9909C43.1718 46.4866 43.2734 45.8452 43.25 45.375H34.2475C34.0337 49.9321 30.3216 53.5 25.7812 53.5C21.0769 53.5 17.25 49.6731 17.25 44.9688C17.25 40.2644 21.0769 36.4375 25.7812 36.4375C27.1544 36.4375 28.4478 36.7716 29.5975 37.349L32.0791 32.9696L29.3065 28.3694C29.2963 28.3516 29.2943 28.3313 29.2862 28.3125H27.4062C27.1818 28.3125 27 28.1307 27 27.9062C27 27.6818 27.1818 27.5 27.4062 27.5H34.7188C34.9432 27.5 35.125 27.6818 35.125 27.9062C35.125 28.1307 34.9432 28.3125 34.7188 28.3125H30.2216L32.7266 32.471H45.6169L43.3165 28.9412C43.2348 28.8152 43.2282 28.6563 43.2998 28.5253C43.3693 28.3948 43.507 28.3125 43.6562 28.3125H52.5938C52.7969 28.3125 52.9685 28.4628 52.9959 28.6634C53.0051 28.7254 53.194 30.1879 52.2495 31.273C51.6121 32.0043 50.6346 32.375 49.3438 32.375C49.1193 32.375 48.9375 32.1932 48.9375 31.9688C48.9375 31.7443 49.1193 31.5625 49.3438 31.5625C50.3893 31.5625 51.1607 31.2852 51.6375 30.7388C52.1007 30.2066 52.1946 29.5297 52.2053 29.125H44.4063L49.9318 37.6045C51.1937 36.8671 52.6557 36.4375 54.2188 36.4375ZM45.3666 33.1875H33.2166L39.8025 44.2116L45.3666 33.1875ZM32.56 33.7684L30.3054 37.7487C32.621 39.2051 34.1855 41.7375 34.2962 44.6422H39.1129L32.56 33.7684ZM33.4837 44.6422C33.373 42.0397 31.975 39.7703 29.9047 38.455L26.3998 44.6422H33.4837ZM25.7812 52.6875C29.8737 52.6875 33.2227 49.4837 33.4756 45.374H25.7025C25.5578 45.4537 25.4237 45.3765 25.3516 45.2521C25.2785 45.1272 25.2775 44.9728 25.3491 44.8479L29.1968 38.0569C28.1649 37.5455 27.0081 37.25 25.7812 37.25C21.5253 37.25 18.0625 40.7128 18.0625 44.9688C18.0625 49.2247 21.5253 52.6875 25.7812 52.6875ZM54.2188 52.6875C58.4747 52.6875 61.9375 49.2247 61.9375 44.9688C61.9375 40.7128 58.4747 37.25 54.2188 37.25C52.8187 37.25 51.5091 37.6304 50.3756 38.2849L54.6387 44.8266C54.7606 45.0145 54.7073 45.2668 54.5204 45.3887C54.4513 45.4334 54.3746 45.4547 54.2985 45.4547C54.1659 45.4547 54.0359 45.3887 53.9577 45.2704L49.6946 38.7287C47.7624 40.1329 46.5 42.4038 46.5 44.9688C46.5 49.2247 49.9628 52.6875 54.2188 52.6875Z" fill="#242424"/>
</g>
<defs>
<clipPath id="clip0_1_253">
<rect width="45.5" height="26" fill="white" transform="matrix(1 0 0 -1 17.25 53.5)"/>
</clipPath>
</defs>
</svg>
