<svg width="80" height="81" viewBox="0 0 80 81" fill="none" xmlns="http://www.w3.org/2000/svg">
<rect x="0.5" y="1" width="79" height="79" rx="39.5" stroke="#E4E4E4"/>
<g clip-path="url(#clip0_1_242)">
<path d="M40 27.5C44.3931 27.5 48.9375 30.8434 48.9375 36.4375C48.9375 39.2 47.8838 41.4288 45.7169 43.2493C45.7103 43.2559 45.7022 43.2615 45.6946 43.2676C44.1529 44.9429 44.0762 45.2613 44.0655 45.994L44.065 46.0316C44.0655 46.0382 44.0655 46.0453 44.0655 46.0524C44.0655 46.0804 44.065 46.1073 44.064 46.1332L44.0615 46.1712C44.031 46.5643 43.8578 46.77 43.7091 46.8751C43.3678 47.1148 42.9631 46.9827 42.9184 46.9665L39.5516 46.1768C39.3327 46.125 39.1982 45.9062 39.2494 45.6878C39.3002 45.47 39.5166 45.3354 39.7375 45.3857L43.1459 46.1875C43.1459 46.1875 43.2134 46.1982 43.2409 46.2022C43.2403 46.189 43.249 46.155 43.2515 46.093L43.2525 46.0646C43.2515 46.0341 43.2525 46.0057 43.2525 45.9813C43.2678 44.95 43.4922 44.4518 45.1472 42.6612C45.1822 42.6237 45.2218 42.5937 45.2665 42.5729C46.5584 41.4516 48.125 39.6697 48.125 36.4375C48.125 31.3523 43.9944 28.3125 40 28.3125C36.0919 28.3125 31.875 31.4188 31.875 36.4375C31.875 38.8912 32.8449 40.9601 34.7594 42.5871C34.8015 42.6115 34.8396 42.644 34.8716 42.6831C36.5078 44.4518 36.7322 44.95 36.7475 45.9813C36.7541 46.3937 36.7459 46.4571 36.7459 46.4571L36.7434 46.6125C36.7322 46.9756 36.7429 46.9787 36.8688 47.0173L43.4135 48.4559C43.6329 48.5041 43.7715 48.721 43.7228 48.9404C43.6816 49.1303 43.513 49.2598 43.3262 49.2598C43.2977 49.2598 43.2688 49.2562 43.2393 49.2496L36.6632 47.8029C35.9019 47.5703 35.9202 46.9553 35.9324 46.5882L35.936 46.418C35.9385 46.3713 35.9405 46.285 35.936 45.9935C35.9253 45.2562 35.8471 44.9378 34.3028 43.2625C34.2749 43.2422 34.25 43.2188 34.2282 43.1909C32.1462 41.4537 31.0625 39.1619 31.0625 36.4375C31.0625 30.9176 35.7019 27.5 40 27.5ZM43.25 51.4688C43.2205 51.4688 43.1906 51.4657 43.1596 51.4581L36.6596 49.9844C36.4402 49.9346 36.3031 49.7168 36.3534 49.4984C36.4032 49.2801 36.619 49.1435 36.8394 49.1922L43.3394 50.6659C43.5587 50.7157 43.6959 50.9335 43.6456 51.1519C43.6034 51.3413 43.4359 51.4688 43.25 51.4688ZM37.2446 51.5124L42.5259 52.6971C42.7452 52.7459 42.8828 52.9627 42.8341 53.1821C42.7919 53.3715 42.6234 53.5 42.4375 53.5C42.408 53.5 42.3791 53.497 42.3481 53.4893L37.0669 52.3046C36.8475 52.2559 36.7104 52.039 36.7591 51.8196C36.8094 51.6013 37.0247 51.4637 37.2446 51.5124Z" fill="#242424"/>
</g>
<defs>
<clipPath id="clip0_1_242">
<rect width="17.88" height="26" fill="white" transform="matrix(1 0 0 -1 31.06 53.5)"/>
</clipPath>
</defs>
</svg>
