<svg width="80" height="81" viewBox="0 0 80 81" fill="none" xmlns="http://www.w3.org/2000/svg">
<rect x="0.5" y="1" width="79" height="79" rx="39.5" stroke="#E4E4E4"/>
<g clip-path="url(#clip0_1_268)">
<path d="M51.9012 38.8938C55.4193 40.014 57.0575 41.8152 57.0575 44.5625C57.0575 46.353 55.9056 48.1538 53.8085 49.6498V53.0938C53.8085 53.2156 53.7541 53.3309 53.6592 53.4081C53.5866 53.4685 53.4947 53.5 53.4023 53.5C53.3749 53.5 53.348 53.4975 53.3211 53.4919C53.2465 53.4771 51.529 53.1125 50.0111 51.5084C49.869 51.5419 49.7253 51.581 49.5806 51.6206C49.1161 51.746 48.6354 51.875 48.1226 51.875C45.8473 51.875 44.2481 51.3819 42.6018 50.1713C42.4216 50.0377 42.3825 49.7843 42.5155 49.603C42.649 49.4228 42.9013 49.3832 43.0836 49.5162C44.5761 50.6141 46.0366 51.0625 48.1226 51.0625C48.5277 51.0625 48.9552 50.9472 49.3694 50.836C49.6091 50.7715 49.8456 50.708 50.0771 50.6634C50.2172 50.6375 50.3619 50.6862 50.4569 50.7929C51.3691 51.8207 52.4032 52.3229 52.9962 52.5438V49.4375C52.9962 49.3034 53.0622 49.179 53.1724 49.1029C54.3192 48.3132 56.2452 46.674 56.2452 44.5625C56.2452 42.1885 54.8294 40.6798 51.6549 39.6682C51.4417 39.5996 51.324 39.3716 51.391 39.1579C51.4595 38.9441 51.6869 38.8273 51.9012 38.8938ZM49.7471 38.4688C49.7471 44.5452 44.5822 48.6291 36.8956 48.6291C35.8412 48.6291 34.6787 48.4452 33.6512 48.2543C31.2794 50.8487 28.5075 52.1091 28.3887 52.1619C28.3349 52.1853 28.2781 52.1975 28.2222 52.1975C28.145 52.1975 28.0689 52.1756 28.0014 52.1325C27.8861 52.0568 27.8161 51.9293 27.8161 51.7912V46.3998C25.5509 44.8007 22.9425 42.1585 22.9425 38.4703C22.9425 32.3191 28.8923 27.5 36.4885 27.5C44.0466 27.5 49.7471 32.2155 49.7471 38.4688ZM36.8946 47.8166C44.0963 47.8166 48.9349 44.0603 48.9349 38.4688C48.9349 32.6787 43.5846 28.3125 36.4885 28.3125C29.3482 28.3125 23.7548 32.7741 23.7548 38.4703C23.7548 41.9016 26.3093 44.3782 28.4522 45.8529C28.5623 45.929 28.6283 46.0534 28.6283 46.1875V51.129C29.5761 50.6146 31.5332 49.4213 33.1983 47.5429C33.2933 47.4362 33.4379 47.3885 33.5781 47.4134C34.6213 47.6124 35.8306 47.8166 36.8946 47.8166ZM36.3448 36.8438C37.2409 36.8438 37.9693 37.5725 37.9693 38.4688C37.9693 39.365 37.2409 40.0938 36.3448 40.0938C35.4488 40.0938 34.7203 39.365 34.7203 38.4688C34.7203 37.5725 35.4488 36.8438 36.3448 36.8438ZM36.3448 39.2812C36.7926 39.2812 37.1571 38.9171 37.1571 38.4688C37.1571 38.0204 36.7926 37.6562 36.3448 37.6562C35.8971 37.6562 35.5326 38.0204 35.5326 38.4688C35.5326 38.9171 35.8971 39.2812 36.3448 39.2812ZM42.0307 36.8438C42.9267 36.8438 43.6552 37.5725 43.6552 38.4688C43.6552 39.365 42.9267 40.0938 42.0307 40.0938C41.1346 40.0938 40.4061 39.365 40.4061 38.4688C40.4061 37.5725 41.1346 36.8438 42.0307 36.8438ZM42.0307 39.2812C42.4784 39.2812 42.8429 38.9171 42.8429 38.4688C42.8429 38.0204 42.4784 37.6562 42.0307 37.6562C41.5829 37.6562 41.2184 38.0204 41.2184 38.4688C41.2184 38.9171 41.5829 39.2812 42.0307 39.2812ZM30.659 36.9209C31.555 36.9209 32.2835 37.6496 32.2835 38.5459C32.2835 39.4422 31.555 40.1709 30.659 40.1709C29.763 40.1709 29.0345 39.4422 29.0345 38.5459C29.0345 37.6496 29.763 36.9209 30.659 36.9209ZM30.659 39.3584C31.1068 39.3584 31.4713 38.9943 31.4713 38.5459C31.4713 38.0975 31.1068 37.7334 30.659 37.7334C30.2112 37.7334 29.8467 38.0975 29.8467 38.5459C29.8467 38.9943 30.2112 39.3584 30.659 39.3584Z" fill="#242424"/>
</g>
<defs>
<clipPath id="clip0_1_268">
<rect width="34.12" height="26" fill="white" transform="matrix(1 0 0 -1 22.94 53.5)"/>
</clipPath>
</defs>
</svg>
