<svg width="81" height="81" viewBox="0 0 81 81" fill="none" xmlns="http://www.w3.org/2000/svg">
<rect x="2" y="2" width="77" height="77" rx="38.5" stroke="#F5F5F5" stroke-width="3"/>
<g clip-path="url(#clip0_1_176)">
<path d="M52.4966 35.4002C53.2131 35.8059 53.6087 36.3726 53.6087 36.9983C53.6087 37.6239 53.2141 38.1911 52.4966 38.5958L43.1178 43.8903C42.4794 44.2498 41.636 44.4489 40.7427 44.4489C39.851 44.4489 39.0075 44.2508 38.3687 43.8903L28.9899 38.5958C28.2734 38.1911 27.8788 37.6239 27.8788 36.9983C27.8788 36.3726 28.2729 35.8059 28.9899 35.4002L38.3687 30.1067C39.6479 29.3851 41.8416 29.3862 43.1178 30.1067L52.4966 35.4002ZM52.069 37.8402C52.4955 37.5995 52.7393 37.2928 52.7388 36.9983C52.7388 36.7037 52.494 36.3965 52.0685 36.1558L42.6897 30.8619C42.1869 30.578 41.4765 30.415 40.7422 30.415C40.0084 30.415 39.2985 30.5775 38.7953 30.8619L29.4165 36.1558C28.9909 36.397 28.7472 36.7037 28.7472 36.9983C28.7472 37.2928 28.9909 37.5995 29.4165 37.8402L38.7953 43.1347C39.8012 43.7034 41.6847 43.7024 42.6907 43.1347L52.069 37.8402ZM52.4966 40.9551C53.2131 41.3599 53.6082 41.9281 53.6082 42.5537C53.6082 43.1794 53.2131 43.7471 52.4955 44.1518L43.1173 49.4458C42.4515 49.8221 41.5969 50.01 40.7422 50.01C39.8881 50.01 39.0334 49.8216 38.3682 49.4458L28.9894 44.1518C28.2719 43.7471 27.8778 43.1794 27.8778 42.5537C27.8778 41.9281 28.2719 41.3599 28.9894 40.9551C29.1971 40.8368 29.4632 40.9105 29.5815 41.1202C29.6993 41.3289 29.6257 41.594 29.4165 41.7118C28.9909 41.9525 28.7472 42.2592 28.7472 42.5537C28.7472 42.8478 28.9909 43.155 29.4165 43.3952L38.7953 48.6896C39.8515 49.2858 41.636 49.2853 42.6907 48.6896L52.069 43.3952C52.495 43.155 52.7393 42.8478 52.7393 42.5537C52.7393 42.2592 52.495 41.9525 52.069 41.7118C51.8603 41.594 51.7866 41.3289 51.9044 41.1202C52.0238 40.9105 52.2884 40.8373 52.4966 40.9551ZM52.4966 46.403C53.2131 46.8077 53.6087 47.3759 53.6087 48.0016C53.6087 48.6272 53.2141 49.1939 52.4966 49.5996L43.1178 54.8936C42.4525 55.2699 41.5979 55.4578 40.7427 55.4578C39.8891 55.4578 39.0344 55.2694 38.3687 54.8936L28.9899 49.5996C28.2729 49.1949 27.8788 48.6277 27.8788 48.0016C27.8788 47.3749 28.2734 46.8077 28.9894 46.4025C29.1971 46.2836 29.4632 46.3583 29.5815 46.5675C29.6993 46.7762 29.6257 47.0408 29.4165 47.1586C28.9909 47.3993 28.7472 47.7065 28.7472 48.0005C28.7472 48.2956 28.9909 48.6028 29.4165 48.843L38.7953 54.138C39.8515 54.7346 41.636 54.7336 42.6907 54.138L52.069 48.844C52.495 48.6028 52.7393 48.2956 52.7393 48.0016C52.7393 47.707 52.495 47.4003 52.069 47.1596C51.8603 47.0418 51.7866 46.7767 51.9044 46.568C52.0238 46.3583 52.2884 46.2851 52.4966 46.403Z" fill="#242424"/>
</g>
<defs>
<clipPath id="clip0_1_176">
<rect width="26" height="26" fill="white" transform="matrix(1 0 0 -1 27.5 55.5)"/>
</clipPath>
</defs>
</svg>
