<svg width="20" height="22" viewBox="0 0 20 22" fill="none" xmlns="http://www.w3.org/2000/svg">
<g clip-path="url(#clip0_1_10)">
<path d="M11.8157 12.553C11.8157 12.553 11.8955 12.4538 12.0551 12.2553C12.2147 12.0568 12.3477 11.9576 12.4541 11.9576C12.5605 11.9576 12.9594 12.1376 13.651 12.4978C14.3426 12.8579 14.7089 13.0748 14.7498 13.1484C14.7662 13.1894 14.7744 13.2507 14.7744 13.3326C14.7744 13.6027 14.7048 13.9137 14.5657 14.2656C14.4347 14.5848 14.1442 14.8529 13.694 15.0698C13.2439 15.2866 12.8265 15.3951 12.4418 15.3951C11.9753 15.3951 11.1977 15.1414 10.1092 14.6339C9.3071 14.2656 8.61142 13.7827 8.02213 13.1853C7.43285 12.5878 6.82719 11.8307 6.20517 10.9141C5.61588 10.0383 5.32533 9.24442 5.33352 8.53236V8.43415C5.35807 7.68936 5.6609 7.04278 6.242 6.49442C6.43843 6.31436 6.65123 6.22433 6.88039 6.22433C6.9295 6.22433 7.00316 6.23046 7.10138 6.24274C7.19959 6.25502 7.27734 6.26116 7.33463 6.26116C7.49014 6.26116 7.59859 6.28776 7.65997 6.34096C7.72135 6.39416 7.78478 6.50669 7.85026 6.67857C7.91574 6.84226 8.05078 7.20238 8.25539 7.75892C8.46001 8.31547 8.56231 8.62239 8.56231 8.67968C8.56231 8.85156 8.42113 9.08686 8.13876 9.3856C7.8564 9.68433 7.71521 9.87462 7.71521 9.95647C7.71521 10.0138 7.73568 10.0751 7.7766 10.1406C8.05487 10.7381 8.47228 11.2987 9.02883 11.8225C9.48716 12.2563 10.1051 12.6696 10.8826 13.0625C10.9808 13.1198 11.0709 13.1484 11.1527 13.1484C11.2755 13.1484 11.4965 12.95 11.8157 12.553ZM9.96187 18.4643C11.0013 18.4643 11.9978 18.2597 12.9513 17.8504C13.9048 17.4412 14.7253 16.8929 15.4128 16.2054C16.1003 15.5179 16.6486 14.6974 17.0578 13.7439C17.4671 12.7904 17.6717 11.7939 17.6717 10.7545C17.6717 9.71503 17.4671 8.71856 17.0578 7.76506C16.6486 6.81157 16.1003 5.99107 15.4128 5.30357C14.7253 4.61607 13.9048 4.0677 12.9513 3.65848C11.9978 3.24925 11.0013 3.04464 9.96187 3.04464C8.92243 3.04464 7.92597 3.24925 6.97247 3.65848C6.01897 4.0677 5.19847 4.61607 4.51097 5.30357C3.82347 5.99107 3.27511 6.81157 2.86588 7.76506C2.45666 8.71856 2.25204 9.71503 2.25204 10.7545C2.25204 12.4159 2.74312 13.9219 3.72526 15.2723L2.75539 18.1328L5.72638 17.1875C7.01953 18.0387 8.43136 18.4643 9.96187 18.4643ZM6.37091 2.23437C6.37091 2.23437 6.65634 2.1116 7.22721 1.86607C7.79808 1.62053 8.70963 1.49776 9.96187 1.49776C11.2141 1.49776 12.4111 1.7433 13.5528 2.23437C14.6946 2.72544 15.6788 3.3843 16.5054 4.21093C17.332 5.03757 17.9909 6.02176 18.482 7.1635C18.973 8.30524 19.2186 9.50223 19.2186 10.7545C19.2186 12.0067 18.973 13.2037 18.482 14.3454C17.9909 15.4872 17.332 16.4713 16.5054 17.298C15.6788 18.1246 14.6946 18.7835 13.5528 19.2745C12.4111 19.7656 11.2141 20.0112 9.96187 20.0112C8.36588 20.0112 6.87221 19.6265 5.48084 18.8571L0.36142 20.5022L2.03106 15.5301C1.14713 14.0733 0.70517 12.4814 0.70517 10.7545C0.70517 9.50223 0.950705 8.30524 1.44178 7.1635C1.93285 6.02176 2.5917 5.03757 3.41834 4.21093C4.24498 3.3843 5.22917 2.72544 6.37091 2.23437Z" fill="#5DB215"/>
</g>
<defs>
<clipPath id="clip0_1_10">
<rect width="18.86" height="22" fill="white" transform="matrix(1 0 0 -1 0.359985 22)"/>
</clipPath>
</defs>
</svg>
