<svg width="14" height="13" viewBox="0 0 14 13" fill="none" xmlns="http://www.w3.org/2000/svg">
<g clip-path="url(#clip0_1_131)">
<path d="M13.3057 6.47822C13.3057 6.54592 13.2815 6.60396 13.2332 6.65232L10.4474 9.2204C10.3701 9.28811 10.2854 9.30262 10.1935 9.26393C10.1016 9.2204 10.0557 9.15028 10.0557 9.05355V7.42855H1.00213C0.934424 7.42855 0.878806 7.40679 0.835279 7.36326C0.791752 7.31973 0.769989 7.26412 0.769989 7.19641V5.80355C0.769989 5.73584 0.791752 5.68023 0.835279 5.6367C0.878806 5.59317 0.934424 5.57141 1.00213 5.57141H10.0557V3.94641C10.0557 3.84485 10.1016 3.77472 10.1935 3.73603C10.2854 3.69734 10.3701 3.70943 10.4474 3.7723L13.2332 6.31136C13.2815 6.35973 13.3057 6.41534 13.3057 6.47822Z" fill="#C22938"/>
</g>
<defs>
<clipPath id="clip0_1_131">
<rect width="13" height="13" fill="white" transform="matrix(1 0 0 -1 0.769989 13)"/>
</clipPath>
</defs>
</svg>
