<svg width="30" height="30" viewBox="0 0 30 30" fill="none" xmlns="http://www.w3.org/2000/svg">
<rect width="30" height="30" rx="15" fill="#1EA2DB"/>
<path d="M14.7422 15.2188C14.7422 15.4062 14.8255 15.5898 14.9922 15.7695C15.1589 15.9492 15.3607 16.1263 15.5977 16.3008C15.8346 16.4753 16.0703 16.6667 16.3047 16.875C16.5391 17.0833 16.7396 17.3542 16.9062 17.6875C17.0729 18.0208 17.1562 18.3906 17.1562 18.7969C17.1562 19.2656 17.0312 19.7161 16.7812 20.1484C16.4062 20.7839 15.8568 21.2513 15.1328 21.5508C14.4089 21.8503 13.6328 22 12.8047 22C12.1172 22 11.4753 21.8919 10.8789 21.6758C10.2826 21.4596 9.83594 21.1016 9.53906 20.6016C9.34635 20.2891 9.25 19.9479 9.25 19.5781C9.25 19.1562 9.36589 18.7656 9.59766 18.4062C9.82943 18.0469 10.138 17.7474 10.5234 17.5078C11.2057 17.0807 12.2578 16.8203 13.6797 16.7266C13.513 16.5078 13.3893 16.3151 13.3086 16.1484C13.2279 15.9818 13.1875 15.7917 13.1875 15.5781C13.1875 15.3906 13.2422 15.1693 13.3516 14.9141C13.112 14.9349 12.9349 14.9453 12.8203 14.9453C12.0495 14.9453 11.3997 14.694 10.8711 14.1914C10.3424 13.6888 10.0781 13.0521 10.0781 12.2812C10.0781 11.8542 10.1719 11.4401 10.3594 11.0391C10.5469 10.638 10.8047 10.2969 11.1328 10.0156C11.5339 9.67188 12.0091 9.41667 12.5586 9.25C13.1081 9.08333 13.6745 9 14.2578 9H17.5234L16.4453 9.6875H15.4219C15.8073 10.0156 16.099 10.362 16.2969 10.7266C16.4948 11.0911 16.5938 11.5078 16.5938 11.9766C16.5938 12.3516 16.5299 12.6888 16.4023 12.9883C16.2747 13.2878 16.1211 13.5299 15.9414 13.7148C15.7617 13.8997 15.5807 14.069 15.3984 14.2227C15.2161 14.3763 15.0612 14.5365 14.9336 14.7031C14.806 14.8698 14.7422 15.0417 14.7422 15.2188ZM13.6016 14.4688C13.7995 14.4688 14.0026 14.4258 14.2109 14.3398C14.4193 14.2539 14.5911 14.1406 14.7266 14C15.0026 13.7031 15.1406 13.2891 15.1406 12.7578C15.1406 12.4557 15.0964 12.1302 15.0078 11.7812C14.9193 11.4323 14.793 11.0951 14.6289 10.7695C14.4648 10.444 14.2448 10.1745 13.9688 9.96094C13.6927 9.7474 13.388 9.64062 13.0547 9.64062C12.8359 9.64062 12.6211 9.69141 12.4102 9.79297C12.1992 9.89453 12.0286 10.0312 11.8984 10.2031C11.6536 10.5104 11.5312 10.9271 11.5312 11.4531C11.5312 11.6927 11.5573 11.9466 11.6094 12.2148C11.6615 12.4831 11.7435 12.7513 11.8555 13.0195C11.9674 13.2878 12.1029 13.5286 12.2617 13.7422C12.4206 13.9557 12.6159 14.1302 12.8477 14.2656C13.0794 14.401 13.3307 14.4688 13.6016 14.4688ZM13.6172 21.2891C13.9193 21.2891 14.2096 21.2552 14.4883 21.1875C14.7669 21.1198 15.0247 21.0182 15.2617 20.8828C15.4987 20.7474 15.6888 20.5573 15.832 20.3125C15.9753 20.0677 16.0469 19.7839 16.0469 19.4609C16.0469 19.3307 16.0286 19.2031 15.9922 19.0781C15.9557 18.9531 15.918 18.8438 15.8789 18.75C15.8398 18.6562 15.7695 18.5482 15.668 18.4258C15.5664 18.3034 15.4896 18.2122 15.4375 18.1523C15.3854 18.0924 15.2852 18.0026 15.1367 17.8828C14.9883 17.763 14.8932 17.6875 14.8516 17.6562C14.8099 17.625 14.7018 17.5469 14.5273 17.4219C14.3529 17.2969 14.2578 17.2292 14.2422 17.2188C14.1589 17.2083 14.0339 17.2031 13.8672 17.2031C13.5911 17.2031 13.3177 17.2214 13.0469 17.2578C12.776 17.2943 12.4961 17.3594 12.207 17.4531C11.918 17.5469 11.6654 17.6667 11.4492 17.8125C11.2331 17.9583 11.0547 18.1523 10.9141 18.3945C10.7734 18.6367 10.7031 18.9115 10.7031 19.2188C10.7031 19.5833 10.7943 19.9049 10.9766 20.1836C11.1589 20.4622 11.3971 20.6784 11.6914 20.832C11.9857 20.9857 12.2956 21.1003 12.6211 21.1758C12.9466 21.2513 13.2786 21.2891 13.6172 21.2891ZM19.9453 14.4453H21.6094V15.2891H19.9453V17H19.125V15.2891H17.4688V14.4453H19.125V12.75H19.9453V14.4453Z" fill="white"/>
</svg>
