<svg width="30" height="30" viewBox="0 0 30 30" fill="none" xmlns="http://www.w3.org/2000/svg">
<rect width="30" height="30" rx="15" fill="#1EA2DB"/>
<path d="M21.6562 12.1875C21.3073 12.6979 20.8854 13.1328 20.3906 13.4922C20.3958 13.5651 20.3984 13.6745 20.3984 13.8203C20.3984 14.4974 20.2995 15.1732 20.1016 15.8477C19.9036 16.5221 19.6029 17.1693 19.1992 17.7891C18.7956 18.4089 18.3151 18.957 17.7578 19.4336C17.2005 19.9102 16.5286 20.2904 15.7422 20.5742C14.9557 20.8581 14.1146 21 13.2188 21C11.8073 21 10.5156 20.6224 9.34375 19.8672C9.52604 19.888 9.72917 19.8984 9.95312 19.8984C11.125 19.8984 12.1693 19.5391 13.0859 18.8203C12.5391 18.8099 12.0495 18.6419 11.6172 18.3164C11.1849 17.9909 10.888 17.5755 10.7266 17.0703C10.8984 17.0964 11.0573 17.1094 11.2031 17.1094C11.4271 17.1094 11.6484 17.0807 11.8672 17.0234C11.2839 16.9036 10.8008 16.6133 10.418 16.1523C10.0352 15.6914 9.84375 15.1562 9.84375 14.5469V14.5156C10.1979 14.7135 10.5781 14.8203 10.9844 14.8359C10.6406 14.6068 10.3672 14.3073 10.1641 13.9375C9.96094 13.5677 9.85938 13.1667 9.85938 12.7344C9.85938 12.276 9.97396 11.8516 10.2031 11.4609C10.8333 12.237 11.6003 12.8581 12.5039 13.3242C13.4076 13.7904 14.375 14.0495 15.4062 14.1016C15.3646 13.9036 15.3438 13.7109 15.3438 13.5234C15.3438 12.8255 15.5898 12.2305 16.082 11.7383C16.5742 11.2461 17.1693 11 17.8672 11C18.5964 11 19.2109 11.2656 19.7109 11.7969C20.2786 11.6875 20.8125 11.4844 21.3125 11.1875C21.1198 11.7865 20.75 12.25 20.2031 12.5781C20.6875 12.526 21.1719 12.3958 21.6562 12.1875Z" fill="white"/>
</svg>
