<svg width="265" height="61" viewBox="0 0 265 61" fill="none" xmlns="http://www.w3.org/2000/svg">
<g clip-path="url(#clip0_1_335)">
<path d="M85.316 22.915C84.9421 23.4618 84.4901 23.9278 83.96 24.3128C83.9655 24.391 83.9683 24.5082 83.9683 24.6644C83.9683 25.3899 83.8623 26.1139 83.6502 26.8366C83.4382 27.5592 83.1159 28.2526 82.6835 28.9166C82.251 29.5807 81.7362 30.168 81.1391 30.6786C80.542 31.1892 79.8221 31.5966 78.9795 31.9007C78.1369 32.2049 77.2356 32.3569 76.2758 32.3569C74.7635 32.3569 73.3796 31.9524 72.124 31.1432C72.3193 31.1655 72.537 31.1767 72.7769 31.1767C74.0325 31.1767 75.1514 30.7916 76.1335 30.0216C75.5476 30.0104 75.023 29.8304 74.5598 29.4817C74.0967 29.1329 73.7786 28.6878 73.6056 28.1466C73.7898 28.1745 73.96 28.1884 74.1162 28.1884C74.3562 28.1884 74.5933 28.1577 74.8277 28.0963C74.2027 27.968 73.6851 27.6569 73.275 27.163C72.8648 26.6692 72.6597 26.0958 72.6597 25.4429V25.4094C73.0392 25.6214 73.4466 25.7358 73.8818 25.7526C73.5135 25.507 73.2206 25.1862 73.0029 24.79C72.7853 24.3938 72.6765 23.9641 72.6765 23.5009C72.6765 23.0098 72.7992 22.555 73.0448 22.1365C73.72 22.968 74.5417 23.6334 75.5099 24.1329C76.4781 24.6323 77.5146 24.9099 78.6196 24.9658C78.5749 24.7537 78.5526 24.5472 78.5526 24.3463C78.5526 23.5986 78.8163 22.961 79.3436 22.4337C79.871 21.9063 80.5085 21.6426 81.2563 21.6426C82.0375 21.6426 82.696 21.9272 83.2317 22.4964C83.84 22.3793 84.412 22.1616 84.9477 21.8435C84.7412 22.4853 84.345 22.9819 83.7591 23.3335C84.278 23.2777 84.797 23.1382 85.316 22.915Z" fill="#B51C50"/>
</g>
<g clip-path="url(#clip1_1_335)">
<path d="M118.112 19.6006V21.8104H116.797C116.318 21.8104 115.994 21.9109 115.826 22.1117C115.659 22.3126 115.575 22.614 115.575 23.0158V24.5978H118.028L117.701 27.0755H115.575V33.4287H113.014V27.0755H110.879V24.5978H113.014V22.773C113.014 21.7351 113.304 20.9301 113.885 20.3581C114.465 19.7861 115.238 19.5001 116.203 19.5001C117.023 19.5001 117.66 19.5336 118.112 19.6006Z" fill="#B51C50"/>
</g>
<g clip-path="url(#clip2_1_335)">
<path d="M149.204 26.1631C149.204 26.364 149.293 26.5607 149.472 26.7532C149.65 26.9457 149.866 27.1355 150.12 27.3224C150.373 27.5093 150.626 27.7144 150.877 27.9376C151.128 28.1609 151.342 28.451 151.521 28.8082C151.699 29.1653 151.788 29.5615 151.788 29.9968C151.788 30.499 151.655 30.9817 151.387 31.4449C150.985 32.1257 150.397 32.6265 149.622 32.9474C148.847 33.2683 148.016 33.4287 147.129 33.4287C146.393 33.4287 145.706 33.3129 145.068 33.0813C144.429 32.8497 143.951 32.4661 143.633 31.9304C143.427 31.5956 143.324 31.2301 143.324 30.8338C143.324 30.3818 143.448 29.9633 143.696 29.5783C143.944 29.1932 144.274 28.8723 144.687 28.6157C145.417 28.1581 146.544 27.879 148.066 27.7786C147.888 27.5442 147.755 27.3378 147.669 27.1592C147.583 26.9806 147.539 26.7769 147.539 26.5481C147.539 26.3472 147.598 26.1101 147.715 25.8366C147.458 25.859 147.269 25.8701 147.146 25.8701C146.321 25.8701 145.625 25.6009 145.059 25.0624C144.493 24.5239 144.21 23.8417 144.21 23.0158C144.21 22.5582 144.311 22.1145 144.511 21.6848C144.712 21.2552 144.988 20.8896 145.339 20.5883C145.769 20.22 146.278 19.9466 146.866 19.768C147.454 19.5894 148.061 19.5001 148.685 19.5001H152.182L151.027 20.2367H149.932C150.344 20.5883 150.656 20.9594 150.868 21.35C151.08 21.7407 151.186 22.1871 151.186 22.6893C151.186 23.0911 151.118 23.4524 150.981 23.7733C150.845 24.0942 150.68 24.3537 150.488 24.5518C150.295 24.7499 150.102 24.9312 149.906 25.0958C149.711 25.2605 149.545 25.4321 149.409 25.6106C149.272 25.7892 149.204 25.9734 149.204 26.1631ZM147.983 25.3595C148.195 25.3595 148.412 25.3135 148.635 25.2214C148.858 25.1293 149.042 25.008 149.187 24.8573C149.483 24.5392 149.63 24.0956 149.63 23.5264C149.63 23.2027 149.583 22.8539 149.488 22.4801C149.393 22.1062 149.258 21.7448 149.083 21.3961C148.907 21.0473 148.671 20.7585 148.376 20.5297C148.08 20.3009 147.754 20.1865 147.397 20.1865C147.163 20.1865 146.933 20.2409 146.707 20.3497C146.481 20.4586 146.299 20.6051 146.159 20.7892C145.897 21.1184 145.766 21.5649 145.766 22.1285C145.766 22.3852 145.794 22.6572 145.85 22.9446C145.905 23.232 145.993 23.5194 146.113 23.8068C146.233 24.0942 146.378 24.3523 146.548 24.5811C146.718 24.8098 146.927 24.9968 147.175 25.1419C147.424 25.287 147.693 25.3595 147.983 25.3595ZM147.999 32.667C148.323 32.667 148.634 32.6307 148.932 32.5582C149.23 32.4856 149.506 32.3768 149.76 32.2317C150.014 32.0866 150.217 31.883 150.371 31.6207C150.524 31.3584 150.601 31.0543 150.601 30.7083C150.601 30.5688 150.581 30.4321 150.542 30.2981C150.503 30.1642 150.463 30.047 150.421 29.9466C150.379 29.8461 150.304 29.7303 150.195 29.5992C150.086 29.4681 150.004 29.3704 149.948 29.3062C149.893 29.242 149.785 29.1458 149.626 29.0174C149.467 28.8891 149.366 28.8082 149.321 28.7747C149.276 28.7412 149.161 28.6575 148.974 28.5236C148.787 28.3896 148.685 28.3171 148.669 28.3059C148.579 28.2948 148.445 28.2892 148.267 28.2892C147.971 28.2892 147.679 28.3087 147.389 28.3478C147.099 28.3869 146.799 28.4566 146.49 28.5571C146.18 28.6575 145.91 28.7859 145.678 28.9421C145.447 29.0984 145.256 29.3062 145.105 29.5657C144.955 29.8252 144.879 30.1196 144.879 30.4488C144.879 30.8394 144.977 31.184 145.172 31.4826C145.367 31.7811 145.622 32.0127 145.937 32.1773C146.253 32.3419 146.584 32.4647 146.933 32.5456C147.281 32.6265 147.637 32.667 147.999 32.667ZM154.775 25.3344H156.556V26.2384H154.775V28.0716H153.896V26.2384H152.123V25.3344H153.896V23.518H154.775V25.3344Z" fill="#B51C50"/>
</g>
<g clip-path="url(#clip3_1_335)">
<path d="M184.3 24.7317V33.0269H181.54V24.7317H184.3ZM184.476 22.1703C184.482 22.5776 184.341 22.918 184.054 23.1915C183.767 23.4649 183.389 23.6016 182.92 23.6016H182.904C182.446 23.6016 182.078 23.4649 181.8 23.1915C181.521 22.918 181.381 22.5776 181.381 22.1703C181.381 21.7573 181.525 21.4155 181.812 21.1449C182.099 20.8742 182.474 20.7389 182.937 20.7389C183.4 20.7389 183.771 20.8742 184.05 21.1449C184.328 21.4155 184.471 21.7573 184.476 22.1703ZM194.229 28.2724V33.0269H191.477V28.5905C191.477 28.0045 191.364 27.5455 191.138 27.2135C190.912 26.8815 190.56 26.7155 190.08 26.7155C189.729 26.7155 189.435 26.8117 189.198 27.0043C188.961 27.1968 188.784 27.4353 188.667 27.7199C188.605 27.8873 188.575 28.1134 188.575 28.3979V33.0269H185.823C185.834 30.8003 185.839 28.995 185.839 27.6111C185.839 26.2272 185.837 25.4013 185.831 25.1334L185.823 24.7317H188.575V25.937H188.558C188.669 25.7584 188.784 25.6022 188.901 25.4683C189.018 25.3343 189.175 25.1892 189.373 25.033C189.571 24.8767 189.814 24.7554 190.101 24.6689C190.388 24.5824 190.707 24.5391 191.059 24.5391C192.012 24.5391 192.779 24.8558 193.359 25.4892C193.939 26.1226 194.229 27.0503 194.229 28.2724Z" fill="#B51C50"/>
</g>
<defs>
<clipPath id="clip0_1_335">
<rect width="13.94" height="15" fill="white" transform="matrix(1 0 0 -1 71.75 34.5)"/>
</clipPath>
<clipPath id="clip1_1_335">
<rect width="8.58" height="15" fill="white" transform="matrix(1 0 0 -1 110.08 34.5)"/>
</clipPath>
<clipPath id="clip2_1_335">
<rect width="13.93" height="15" fill="white" transform="matrix(1 0 0 -1 143.05 34.5)"/>
</clipPath>
<clipPath id="clip3_1_335">
<rect width="12.85" height="15" fill="white" transform="matrix(1 0 0 -1 181.38 34.5)"/>
</clipPath>
</defs>
</svg>
